<svg width="36" height="36" viewBox="0 0 36 36" fill="none" xmlns="http://www.w3.org/2000/svg">
<rect width="36" height="36" rx="18" fill="#FCFCFC"/>
<path fill-rule="evenodd" clip-rule="evenodd" d="M13.8333 9.66666C14.2935 9.66666 14.6666 10.0398 14.6666 10.5V11.3333H21.3333V10.5C21.3333 10.0398 21.7064 9.66666 22.1666 9.66666C22.6269 9.66666 23 10.0398 23 10.5V11.3333H23.8333C25.214 11.3333 26.3333 12.4526 26.3333 13.8333V23.8333C26.3333 25.214 25.214 26.3333 23.8333 26.3333H12.1666C10.7859 26.3333 9.66663 25.214 9.66663 23.8333V13.8333C9.66663 12.4526 10.7859 11.3333 12.1666 11.3333H13V10.5C13 10.0398 13.3731 9.66666 13.8333 9.66666ZM21.3333 13V13.8333C21.3333 14.2936 21.7064 14.6667 22.1666 14.6667C22.6269 14.6667 23 14.2936 23 13.8333V13H23.8333C24.2935 13 24.6666 13.3731 24.6666 13.8333V16.3333H11.3333V13.8333C11.3333 13.3731 11.7064 13 12.1666 13H13V13.8333C13 14.2936 13.3731 14.6667 13.8333 14.6667C14.2935 14.6667 14.6666 14.2936 14.6666 13.8333V13H21.3333ZM11.3333 18V23.8333C11.3333 24.2936 11.7064 24.6667 12.1666 24.6667H23.8333C24.2935 24.6667 24.6666 24.2936 24.6666 23.8333V18H11.3333Z" fill="#6F767E"/>
</svg>
